<?xml version="1.0" encoding="UTF-8"?>
<!DOCTYPE svg PUBLIC "-//W3C//DTD SVG 1.1//EN" "http://www.w3.org/Graphics/SVG/1.1/DTD/svg11.dtd">
<!-- Creator: CorelDRAW X8 -->
<svg xmlns="http://www.w3.org/2000/svg" xml:space="preserve" width="2.92212in" height="0.529752in" version="1.1" style="shape-rendering:geometricPrecision; text-rendering:geometricPrecision; image-rendering:optimizeQuality; fill-rule:evenodd; clip-rule:evenodd"
viewBox="0 0 344 62"
 xmlns:xlink="http://www.w3.org/1999/xlink">
 <defs>
  <style type="text/css">
   <![CDATA[
    .fil0 {fill:#CC9A30}
    .fil1 {fill:black;fill-rule:nonzero}
   ]]>
  </style>
 </defs>
 <g id="Layer_x0020_1">
  <metadata id="CorelCorpID_0Corel-Layer"/>
  <g id="_1453123625488">
   <path class="fil0" d="M172 53c-6,6 -14,9 -23,9 -9,0 -16,-3 -22,-9 -6,-6 -9,-13 -9,-22 0,-9 3,-16 9,-22 6,-6 13,-9 22,-9 9,0 17,3 23,9 6,6 9,13 9,22 0,9 -3,16 -9,22zm-10 -35c-3,-4 -8,-6 -13,-6 -5,0 -9,2 -13,6 -3,3 -5,8 -5,13 0,5 2,10 5,14 4,3 8,5 13,5 5,0 10,-2 13,-5 4,-4 6,-9 6,-14 0,-5 -2,-10 -6,-13z"/>
   <path class="fil1" d="M211 62l0 -61 10 0 0 51 28 0 0 10 -38 0zm79 0l-11 0 27 -61 11 0 16 37 11 0 0 10 -7 0 6 14 -11 0 -6 -14 -26 0 4 -10 18 0c-3,-6 -6,-12 -11,-24 -11,24 -11,26 -21,48zm-290 -61l10 0 0 61 -10 0 0 -61zm64 8c-3,0 -6,1 -8,2 -2,1 -2,3 -2,6 0,2 0,4 2,5 2,2 6,3 12,4 7,2 11,4 14,7 4,2 5,6 5,12 0,5 -2,9 -6,12 -4,4 -9,5 -15,5 -10,0 -18,-3 -25,-9l6 -8c6,5 12,8 19,8 3,0 6,-1 8,-2 2,-2 3,-4 3,-6 0,-2 -1,-4 -3,-5 -2,-2 -5,-3 -10,-4 -4,-1 -7,-2 -10,-3 -2,-1 -4,-2 -6,-3 -3,-3 -5,-7 -5,-13 0,-5 2,-9 6,-12 4,-3 9,-5 15,-5 4,0 8,1 12,2 3,1 7,3 9,5l-5 8c-2,-2 -4,-3 -7,-4 -3,-1 -6,-2 -9,-2z"/>
  </g>
 </g>
</svg>
